<?xml version="1.0" encoding="UTF-8" ?>
<!DOCTYPE svg PUBLIC "-//W3C//DTD SVG 1.1//EN" "http://www.w3.org/Graphics/SVG/1.1/DTD/svg11.dtd">
<svg width="122pt" height="141pt" viewBox="0 0 122 141" version="1.1" xmlns="http://www.w3.org/2000/svg">
<g id="#ffffffff">
</g>
<g id="#9c9ea1ff">
<path fill="#9c9ea1" opacity="1.00" d=" M 57.44 14.94 C 64.15 13.74 71.55 14.66 77.06 18.93 C 81.72 22.60 85.08 27.87 86.83 33.50 C 90.74 48.35 77.44 64.90 61.97 63.65 C 48.32 63.72 36.74 50.69 37.81 37.22 C 38.95 26.77 46.73 16.72 57.44 14.94 Z" />
<path fill="#9c9ea1" opacity="1.00" d=" M 41.63 72.28 C 50.04 71.13 58.55 71.95 67.00 71.72 C 75.12 71.85 83.93 70.68 91.30 74.88 C 100.71 79.98 108.37 89.85 108.40 100.85 C 108.53 108.50 101.98 115.95 94.09 115.57 C 73.03 115.58 51.97 115.54 30.91 115.56 C 24.23 115.88 18.96 110.04 17.33 104.02 C 15.52 98.37 17.95 92.48 20.88 87.68 C 25.44 80.20 32.77 73.73 41.63 72.28 Z" />
</g>
</svg>
